<svg width="27" height="26" viewBox="0 0 27 26" fill="none" xmlns="http://www.w3.org/2000/svg">
<path d="M24.2758 13.975C24.0896 16.0997 23.3022 18.1273 22.0056 19.8208C20.709 21.5142 18.957 22.8034 16.9545 23.5375C14.952 24.2715 12.7818 24.4201 10.6979 23.9657C8.61408 23.5114 6.70271 22.473 5.18747 20.9721C3.67224 19.4711 2.61581 17.5696 2.1418 15.4901C1.6678 13.4107 1.79582 11.2392 2.51089 9.22985C3.22596 7.22049 4.49851 5.45633 6.17962 4.14381C7.86074 2.83128 9.88089 2.02468 12.0037 1.81837C10.7683 3.5064 10.1798 5.58179 10.3452 7.66706C10.5106 9.75233 11.419 11.709 12.9051 13.1811C14.3912 14.6532 16.3564 15.5431 18.4431 15.6888C20.5298 15.8344 22.5996 15.2263 24.2758 13.975Z" stroke="#1E1E1E" stroke-width="3.5" stroke-linecap="round" stroke-linejoin="round"/>
</svg>
